<svg id="Layer_1" data-name="Layer 1" xmlns="http://www.w3.org/2000/svg" xmlns:xlink="http://www.w3.org/1999/xlink" viewBox="0 0 314.8 275.2"><defs><style>.cls-1,.cls-2,.cls-3{fill-rule:evenodd;}.cls-1{fill:url(#linear-gradient);}.cls-2{fill:#727270;}.cls-3{fill:#fefefe;}</style><linearGradient id="linear-gradient" x1="187.89" y1="161.57" x2="90.1" y2="161.41" gradientUnits="userSpaceOnUse"><stop offset="0" stop-color="#08aeea"/><stop offset="1" stop-color="#2af598"/></linearGradient></defs><path class="cls-1" d="M178.86,143.92a47.85,47.85,0,0,0,27.44-43.6,50.3,50.3,0,0,0-21.11-40.8c-1.41-.7-4.22-2.11-4.22,3.52L190.11,94,181,117.2H133.84L124.7,94.69,133.84,63c0-5.63-3.52-3.52-4.92-2.81a49.28,49.28,0,0,0-20.4,40.09c0,19,9.85,35.17,26,42.91,1.4.69,4.22,2.1,4.22,5.63v55.56c0,3.52-2.11,3.52-2.11,3.52a7,7,0,0,0-7,7v42.2a7.56,7.56,0,0,0,7,7h40.81c4.21,0,7.73-3.52,7.73-7V215c0-4.23-3.52-7-7.73-7,0,0-1.41-.7-1.41-3.52V148.86C176.05,144.62,178.16,144.62,178.86,143.92Zm-4.92,102.7-8.45,4.92-8.43,4.94-7.73-4.94-8.47-4.92v-19l8.47-4.92,7.73-4.92,8.43,4.92,8.45,4.92Z"/><path class="cls-2" d="M305.48,151.67V220.6L292.1,222v22.52c0,4.21-2.81,7.73-7,7.73H248.51c-4.25,0-7.06-3.52-7.06-7.73V221.3H192.92V215h0c0-4.23-2.11-7.74-4.92-10.56h0a18.76,18.76,0,0,0-4.22-3.52V150.26c8.43-4.93,16.18-11.25,21.82-19.7,1.39-2.81,2.1-4.92,3.5-7h55.57l-9.14-65.41c-7-13.37-12-16.19-25.32-16.19H86c-13.35,0-19,2.82-25.32,16.19L50.14,123.53H105.7a27.87,27.87,0,0,0,3.52,6.33c4.91,8.45,12.67,15.47,21.81,20.4V200.9a21.48,21.48,0,0,0-4.92,3.52h0A14.34,14.34,0,0,0,121.89,215v6.32H73.35v23.22c0,4.21-2.81,7.73-7,7.73H29.73c-4.21,0-7-3.52-7-7.73V222L9.33,220.6V151.67c0-9.14,1.4-16.18,6.35-24.62L40.3,31.39C45.93,20.13,59.28,11,72,11H243.56c12.67,0,26.73,9.14,31.67,20.4l23.9,95.66c4.24,8.44,6.35,15.48,6.35,24.62Z"/><path class="cls-3" d="M281.56,172.06a23,23,0,0,0-23.22-23.21c-13.36,0-23.22,9.85-23.22,23.21,0,12.66,9.86,22.52,23.22,22.52,12.66,0,23.22-9.86,23.22-22.52Z"/><path class="cls-3" d="M33.25,172.06a23,23,0,0,1,23.21-23.21c13.38,0,23.21,9.85,23.21,23.21,0,12.66-9.83,22.52-23.21,22.52-12.64,0-23.21-9.86-23.21-22.52Z"/></svg>