<svg xmlns="http://www.w3.org/2000/svg" viewBox="0 0 92.33 126.5"><defs><style>.cls-1{fill:#67c3ff;}.cls-2{fill:#3598db;}.cls-3{fill:#fff;}.cls-4{fill:#a0b6d0;}.cls-5{fill:#2a3a4a;}.cls-6{fill:#e94d3e;}.cls-7{fill:#2072bc;}</style></defs><g id="Layer_2" data-name="Layer 2"><g id="Layer_1-2" data-name="Layer 1"><path class="cls-1" d="M82.78,23.2l9.55,9.56v-18a2.42,2.42,0,0,0-2.42-2.43H2.43A2.43,2.43,0,0,0,0,14.77v109.3a2.43,2.43,0,0,0,2.43,2.43H20.87L9,114.67Z"/><path class="cls-2" d="M92.33,124.07V32.76L82.78,23.2,9,114.67,20.87,126.5h69A2.42,2.42,0,0,0,92.33,124.07Z"/><polygon class="cls-3" points="82.78 23.2 62.91 23.2 9.04 23.2 9.04 114.67 82.78 114.67 82.78 62.94 82.78 43.07 82.78 23.2"/><rect class="cls-4" x="44.52" y="47.64" width="30.62" height="5.4"/><rect class="cls-4" x="44.52" y="63.07" width="30.63" height="5.4"/><rect class="cls-4" x="44.52" y="73.87" width="30.63" height="5.41"/><rect class="cls-4" x="44.52" y="89.31" width="30.63" height="5.4"/><rect class="cls-4" x="44.52" y="100.11" width="30.63" height="5.4"/><rect class="cls-4" x="44.52" y="36.84" width="30.62" height="5.4"/><rect class="cls-5" x="21.33" y="12.34" width="49.66" height="15.24"/><path class="cls-4" d="M46.17,0A12.34,12.34,0,1,0,58.5,12.34,12.33,12.33,0,0,0,46.17,0Z"/><path class="cls-5" d="M49,12.34a2.79,2.79,0,1,1-2.78-2.79A2.79,2.79,0,0,1,49,12.34Z"/><polygon class="cls-6" points="35.26 41.63 32.77 39.14 26.15 45.76 22.42 42.03 19.93 44.52 26.15 50.74 26.15 50.73 26.16 50.74 35.26 41.63"/><path class="cls-7" d="M39.07,56.41H16.12V33.46h23ZM19.4,53.13H35.79V36.75H19.4Z"/><polygon class="cls-6" points="35.26 67.86 32.77 65.37 26.15 71.99 22.42 68.26 19.93 70.75 26.15 76.97 26.15 76.97 26.16 76.97 35.26 67.86"/><path class="cls-7" d="M39.07,82.65H16.12v-23h23ZM19.4,79.36H35.79V63H19.4Z"/><polygon class="cls-6" points="35.26 94.1 32.77 91.61 26.15 98.23 22.42 94.5 19.93 96.99 26.15 103.21 26.15 103.2 26.16 103.21 35.26 94.1"/><path class="cls-7" d="M39.07,108.89H16.12v-23h23ZM19.4,105.6H35.79V89.22H19.4Z"/></g></g></svg>