<svg xmlns="http://www.w3.org/2000/svg" viewBox="0 0 393.83 350.33"><defs><style>.cls-1{isolation:isolate;}.cls-2,.cls-8{fill:#222221;}.cls-2{opacity:0.2;}.cls-2,.cls-7{mix-blend-mode:multiply;}.cls-14,.cls-3{fill:#fff;}.cls-4{fill:#ff404e;}.cls-5{fill:#62abe6;}.cls-6{fill:none;stroke-miterlimit:10;stroke-width:3.31px;}.cls-14,.cls-6{stroke:#fff;}.cls-7{opacity:0.3;}.cls-9{fill:#353168;}.cls-10{fill:#f0cc32;}.cls-11{fill:#eab331;}.cls-12{fill:#f6e434;}.cls-13{fill:#f2d5b7;}.cls-14{font-size:39.28px;stroke-linecap:round;stroke-linejoin:round;stroke-width:0.52px;font-family:OpenSans-Regular, Open Sans;}</style></defs><g class="cls-1"><g id="OBJECTS"><rect class="cls-2" x="6.32" y="26.51" width="387.51" height="323.82" rx="19.3"/><rect class="cls-3" y="18.73" width="387.51" height="323.82" rx="19.3"/><rect class="cls-4" x="5.48" y="24.21" width="376.55" height="312.86" rx="14.89"/><path class="cls-5" d="M382,58.85V39.1a14.88,14.88,0,0,0-14.89-14.89H20.37A14.89,14.89,0,0,0,5.48,39.1V58.85Z"/><line class="cls-6" x1="358.04" y1="34.91" x2="371.27" y2="48.14"/><line class="cls-6" x1="358.04" y1="48.14" x2="371.27" y2="34.91"/><g class="cls-7"><path class="cls-8" d="M382,214.66v0l-.07.14c-1.2,1.7-17.73,24.21-52.41,30.3-40,7-62.8-2.68-62.8-2.68v0c-.27-.28-.58-.61-.89-1-10.93-33.57-30.68-35.8-35.48-34.83-3,.59-4.82,3.77-6.05,8.11l-12.67-36.85,64.76-22.3v-.12a28.44,28.44,0,0,0,15.22-35.18c-2.29-6.64-6.47-10.49-11.22-14.43L181,19.53c-6.2-6.1-13.51-9.32-21.13-9.32a28,28,0,0,0-9.14,1.57c-10.08,3.47-17.14,12.06-18.9,23L105.76,168.25A28.41,28.41,0,0,0,141.38,202l0,0,61.33-21.12L218,225.44a46.32,46.32,0,0,0-7.89,1.38c-10.82,2.82-16.37,7.65-14.49,13.59,1.36,4.26,3.77,5,5.48,5-3,2.62-4.24,5.33-3.61,7.82,1.38,5.47,9.18,8.25,12.34,7.39a7.79,7.79,0,0,1,.58-.74,9.24,9.24,0,0,0-1.16,4.83c1,4.84,2.91,6.57,8.63,8,2.83.71,10.11.45,17.21-.32l5.61,14.89,8.9-3.11-5-13.19c.67-.12,1.3-.26,1.9-.39,7.75-1.78,15.74-5.28,20-11.93,10.89,5.33,49.25,11.74,77.44,3.83,20.19-5.67,31.85-13.38,38-18.7V214.66Z"/></g><polygon class="cls-9" points="238.4 245.46 197.99 127.93 189.06 130.95 229.27 247.88 238.4 245.46"/><path class="cls-10" d="M133.43,193A28.41,28.41,0,0,1,105.76,158L131.87,24.57c1.76-10.94,8.82-19.54,18.9-23A28,28,0,0,1,159.91,0c7.62,0,14.93,3.22,21.13,9.32l99.37,86.3c4.75,3.94,8.93,7.79,11.22,14.42a28.44,28.44,0,0,1-15.22,35.19v.11l-135,46.49,0,0A28.3,28.3,0,0,1,133.43,193Z"/><path class="cls-9" d="M278,98.39,178.55,12C171.15,4.69,161.71,1.68,152,5c-9.17,3.16-15,11-16.48,20.18L109.34,158.82a24.75,24.75,0,0,0,32.15,29.11l.75-.28h0l130.48-44.93h0l.08,0a24.75,24.75,0,0,0,15.34-31.47C286.26,105.71,282.83,102.39,278,98.39Z"/><path class="cls-11" d="M139,180.62a17,17,0,0,1-22.11-20L142.1,31.17l1-4.94c1.32-6.7,5.2-11.78,11.34-13.89,6.52-2.25,12.46-.59,18.29,4.8l101.1,87.78c2.4,2.15,5.71,5.14,7,8.84a17.06,17.06,0,0,1-10.46,21.61Z"/><path class="cls-10" d="M265.74,109.69h0L154.49,12.4,126.73,157.53a11.77,11.77,0,0,0,.3,6.71,11.91,11.91,0,0,0,15.14,7.39l.47-.19,0,0,118.68-40.87v-.05c.29-.08.59-.15.89-.25a11.9,11.9,0,0,0,3.5-20.6Z"/><path class="cls-12" d="M143.09,179.16a13.8,13.8,0,0,1-16.7-18.37,11.81,11.81,0,0,1,.34-3.26L154.49,12.44l0-.1c-6.13,2.12-10,7.19-11.32,13.89l-1,4.94L116.86,160.6a17,17,0,0,0,22.11,20l4.13-1.42Z"/><path class="cls-9" d="M200.07,143.27a13.33,13.33,0,1,1,8.27-16.94A13.31,13.31,0,0,1,200.07,143.27ZM180.12,43.58c-2-5.68-7.32-2.45-14.41,0s-13.31,3.21-11.34,8.94a8,8,0,0,0,.48,1.13l23,51.12a8.51,8.51,0,1,0,16.09-5.53L180.6,44.65A7.52,7.52,0,0,0,180.12,43.58Z"/><path class="cls-9" d="M382,204.45s-16.44,24.08-52.49,30.41c-40,7-62.8-2.68-62.8-2.68L265,247.59c8.18,5.45,49.26,13,79,4.7,20.19-5.67,31.85-13.38,38-18.7Z"/><path class="cls-9" d="M267.58,233a16.67,16.67,0,0,1-3.53-4.5c-5.17-10.79-25.42-26.27-40.29-6.77-10.14,13.29,0,18.54-6.25,21s-8.64,9.68-8.22,11.71c1,4.83,2.91,6.57,8.63,8,4.5,1.13,20.25-.2,28.64-2.12s17.08-5.86,21-13.64"/><path class="cls-13" d="M267.7,233.47s-2.07-.9-5.49-7c-6-10.75-23.62-22.92-39.82-8.23-5.26,4.77-4.44,10.13-4.3,14.53.18,5.45.78,11.05-.34,18.95.77,3.91-4.72,7.2-.51,8.31s20.19.77,28.57-1.22,18.11-6.5,22.4-13"/><path class="cls-9" d="M195.66,230.2c-1.88-5.94,3.67-10.77,14.49-13.59s19.79-1.51,21.24,2.47c2.08,5.72-1.21,8.66-1.21,8.66a32.85,32.85,0,0,0-15,1.42c-8.62,2.71-12.08,5.6-12.08,5.6S197.91,237.26,195.66,230.2Z"/><path class="cls-9" d="M243.7,232c-2.11-3-10.25-9.52-25-5.25S196.14,237.54,197.53,243s9.18,8.25,12.34,7.38c0,0,3.78-6,16.81-9.33s18.3-1.2,18.3-1.2S247.79,237.77,243.7,232Z"/><path class="cls-13" d="M198.37,229.23c-1.54-4.77,3.69-8.06,13.65-10.67s17.54-1.06,18.44,2.23a7.07,7.07,0,0,1-.49,5.42,34.05,34.05,0,0,0-13.77,1.59c-7.95,2.46-11.2,4.91-11.2,4.91S200.21,234.9,198.37,229.23Z"/><path class="cls-13" d="M242.45,234.27c-1.37-2.61-9.07-7.42-22.7-3.52s-20,7.8-18.91,12.2,7.34,6.22,10.26,5.43c0,0,2.08-5.42,14.1-8.38,14.12-3.49,17.1-2,17.1-2S244.08,237.35,242.45,234.27Z"/><path class="cls-9" d="M219.37,255.6s5.59,1.6,13.86-.42c9.29-2.26,16.55-5.69,15.66-10.75-1.19-6.74-9.44-6.91-19.84-5.18s-18.46,10.47-17.1,16.68c.74,3.33,4.68,6.78,8.22,6.89"/><path class="cls-9" d="M267.22,235.73c-10.56-37.91-31.84-40.36-36.85-39.34s-7,9.47-7.83,18.53,1.4,19.18,7.74,18.7c3.21-.24,5.44-2.12,6.82-7.49,0,0,5.94,8.86,13.42,7.9"/><path class="cls-13" d="M268.16,237.41s-8.43-20-17.64-28.52c-10.19-9.4-16.69-10.8-19.23-9.76s-7.44,19.31-5.31,26.49,6.12,6.27,8.13,2,5.25-13.77,5.44-18.24c0,0,1,5.5-1.59,14.14,0,0,3.9,9.22,13.18,10.93"/><path class="cls-13" d="M224.65,256.34s5.26-1.38,8.79-2.56c10.46-3.49,13.11-6.63,12.66-9.55-.78-5-8.48-4.6-18.21-2.66-10.33,2.05-17.24,8.37-16.2,13.39.56,2.68,4.71,6,10.42,5.64"/><path class="cls-13" d="M382,204.45v0s-12.14,25.2-50.25,32c-48.89,8.68-64.86-3.57-64.86-3.57l-3.72,13.54c7.8,4.05,49,11.82,79.4,3.55,19.57-5.33,32.62-14,39.44-19.58Z"/><path class="cls-9" d="M98.07,164s0,.95.05,2.6a58.87,58.87,0,0,0,.69,6.74c.21,1.38.55,2.85.91,4.39a48.57,48.57,0,0,0,1.51,4.73,34.49,34.49,0,0,0,2.23,4.74,29,29,0,0,0,3,4.45c.59.68,1.14,1.4,1.79,2,.32.31.63.64,1,1l1,.88a33.87,33.87,0,0,0,4.22,3.08,39.93,39.93,0,0,0,4.37,2.29c.71.36,1.44.6,2.14.88a21,21,0,0,0,2,.74c1.33.42,2.55.84,3.66,1.09s2.07.57,2.88.71c1.62.34,2.55.56,2.55.56s-1,0-2.62,0a28.09,28.09,0,0,1-3-.21c-.58-.08-1.2-.1-1.85-.22l-2-.38a21.68,21.68,0,0,1-2.19-.53,19.77,19.77,0,0,1-2.32-.71,31.29,31.29,0,0,1-4.83-2.1,28.11,28.11,0,0,1-4.72-3.15l-1.12-.94c-.36-.33-.7-.68-1.05-1a27.78,27.78,0,0,1-2-2.19,31.2,31.2,0,0,1-3.22-4.91A31.85,31.85,0,0,1,99,183.29a35.64,35.64,0,0,1-1.23-5.11,36.44,36.44,0,0,1-.47-4.65,33.6,33.6,0,0,1,0-3.92c0-1.17.18-2.18.29-3A25.32,25.32,0,0,1,98.07,164Z"/><path class="cls-9" d="M86.2,155.18s-.3,1.31-.64,3.63a83.23,83.23,0,0,0-.81,9.63c0,2,0,4.14.18,6.4a52.81,52.81,0,0,0,1,7,40.26,40.26,0,0,0,2.3,7.13,31,31,0,0,0,3.87,6.62c.4.5.78,1,1.2,1.5l1.26,1.39c1,.91,1.92,1.89,2.89,2.72a45.34,45.34,0,0,0,6,4.47,40.9,40.9,0,0,0,6.28,3.2c1,.41,2.07.79,3.09,1.08s2,.57,3,.82a50,50,0,0,0,5.34.9c1.61.19,3,.27,4.2.32,2.34.1,3.69.13,3.69.13l-1,.12c-.63.08-1.54.21-2.72.3s-2.62.21-4.27.18a38.06,38.06,0,0,1-5.57-.4,37.17,37.17,0,0,1-6.48-1.52c-1.12-.37-2.25-.83-3.4-1.31a33,33,0,0,1-3.4-1.73c-.56-.33-1.13-.65-1.69-1l-1.65-1.12c-1.12-.71-2.15-1.64-3.23-2.49s-2-1.81-3-2.72l-1.46-1.56c-.46-.53-.89-1.09-1.33-1.63A33.84,33.84,0,0,1,85.83,190a37.63,37.63,0,0,1-2.23-7.69,44.88,44.88,0,0,1-.71-7.39,51.25,51.25,0,0,1,.29-6.6A58.17,58.17,0,0,1,85,158.7,35.75,35.75,0,0,1,86.2,155.18Z"/><path class="cls-9" d="M291.05,91.38l.61.49c.39.33,1,.8,1.65,1.46a42.63,42.63,0,0,1,5.21,5.92c.48.67,1,1.36,1.46,2.11l.72,1.15c.23.4.45.81.68,1.23a33,33,0,0,1,2.43,5.47c.32,1,.6,2,.86,3.09.1.53.19,1.07.29,1.61l.14.82,0,.83a45.71,45.71,0,0,1,0,6.62,49.21,49.21,0,0,1-1,6.53,33.86,33.86,0,0,1-2,6.11,31.91,31.91,0,0,1-2.85,5.28c-.57.76-1.09,1.53-1.66,2.23s-1.14,1.33-1.72,1.92l-1.69,1.66-1.64,1.35c-1,.85-2,1.45-2.8,2-1.64,1-2.58,1.49-2.58,1.49s.82-.72,2.25-1.92c.67-.67,1.53-1.41,2.42-2.35l1.41-1.51,1.44-1.75c.49-.62.94-1.31,1.43-2s.92-1.46,1.39-2.22a38.66,38.66,0,0,0,2.36-5.1,38.19,38.19,0,0,0,1.63-5.77,46.26,46.26,0,0,0,.84-6.17,44.61,44.61,0,0,0,.11-6.21l0-.75-.11-.74c-.06-.49-.13-1-.2-1.48-.19-1-.41-1.93-.66-2.86a40.06,40.06,0,0,0-1.95-5.28c-.19-.41-.37-.82-.56-1.21l-.59-1.16c-.38-.77-.8-1.48-1.19-2.17-.8-1.37-1.6-2.6-2.33-3.68s-1.4-2-2-2.74-1-1.33-1.35-1.71Z"/><path class="cls-9" d="M300.71,162.62s.25-.24.69-.7,1.06-1.16,1.84-2.06l1.25-1.51,1.42-1.82,1.52-2.14c.5-.77,1.06-1.56,1.6-2.42,1.06-1.71,2.13-3.61,3.16-5.67a62.16,62.16,0,0,0,2.79-6.64,54.41,54.41,0,0,0,2-7.41,51.18,51.18,0,0,0,.91-7.82c0-1.36.12-2.75.05-4,0-.65,0-1.31,0-2s-.11-1.31-.16-2-.1-1.3-.2-1.94-.15-1.28-.23-1.92c-.22-1.26-.4-2.52-.69-3.73s-.57-2.41-.92-3.56S315,103,314.6,102A52,52,0,0,0,312,96c-.46-.9-.92-1.75-1.4-2.53s-.92-1.54-1.38-2.22-.89-1.31-1.31-1.89-.8-1.12-1.18-1.57c-.73-.94-1.32-1.66-1.75-2.14l-.63-.74.74.63c.49.42,1.21,1,2.05,1.88.44.41.9.9,1.39,1.43s1,1.12,1.54,1.78,1.1,1.34,1.64,2.11,1.11,1.59,1.66,2.47,1.07,1.83,1.64,2.8,1,2,1.5,3.14A46.73,46.73,0,0,1,319,108.3c.35,1.26.59,2.57.87,3.88s.47,2.67.55,4l.18,2.06c0,.69.05,1.39.08,2.09.08,1.42,0,2.76,0,4.12a55.1,55.1,0,0,1-1.06,8.29,48.39,48.39,0,0,1-2.32,7.72,51.13,51.13,0,0,1-3.24,6.77c-.57,1-1.22,2-1.81,2.95s-1.27,1.8-1.87,2.65-1.25,1.59-1.84,2.32l-1.77,2-1.63,1.68-1.45,1.36c-.89.81-1.63,1.4-2.13,1.79Z"/><polygon class="cls-9" points="232.31 254.71 240.74 277.08 249.64 273.97 241.22 251.66 232.31 254.71"/><rect class="cls-3" x="76.46" y="260.15" width="234.59" height="61.5" rx="13.62"/><rect class="cls-5" x="81.61" y="265.3" width="224.28" height="51.19" rx="8.46"/><text class="cls-14" transform="translate(98.11 305.9)">WARNING!</text></g></g></svg>